<svg width="113" height="24" viewBox="0 0 113 24" fill="none" xmlns="http://www.w3.org/2000/svg">
<path d="M94.5765 21.6225C93.1558 21.9136 91.7191 21.7109 90.2895 21.7247C89.8147 21.7299 90.0096 21.2881 90.0078 21.0455C89.9919 18.4774 90.0149 15.9093 89.9883 13.3429C89.96 10.5964 88.3603 9.02121 85.5242 8.80807C83.1273 8.62785 80.998 9.23781 79.083 10.6536C78.6561 10.9689 78.5144 11.3016 78.5179 11.8094C78.5392 14.8679 78.5144 17.9263 78.5427 20.9848C78.548 21.5827 78.3868 21.7941 77.7544 21.7663C76.6649 21.7178 75.5719 21.7369 74.4807 21.7611C74.0112 21.7715 73.7933 21.671 73.7951 21.146C73.8128 16.242 73.8128 11.3363 73.7933 6.43233C73.7916 5.92287 74.0254 5.88474 74.4311 5.89168C75.5808 5.90727 76.7323 5.91594 77.882 5.88648C78.3567 5.87435 78.5941 5.97312 78.5356 6.49471C78.4913 6.88807 78.5268 7.29009 78.5268 7.80128C79.4852 7.33514 80.3089 6.79449 81.2372 6.46698C84.3426 5.37009 87.4728 5.12402 90.6243 6.25211C92.8015 7.03016 94.2045 8.4355 94.433 10.8147C94.4897 11.4021 94.6545 11.9827 94.6119 12.584C94.6881 15.5956 94.7643 18.6091 94.5765 21.6225Z" fill="white"/>
<path d="M21.6193 17.5867C21.6193 18.6282 21.5644 19.6107 21.6388 20.5846C21.6848 21.2049 21.3642 21.3817 20.8806 21.4631C18.319 21.8963 15.7433 22.2949 13.1427 22.1563C10.1471 21.9968 7.21706 21.5498 4.58816 19.9157C0.4659 17.3563 0.295837 12.0191 3.05405 8.94327C4.57931 7.24161 6.65727 6.39598 8.88226 5.89865C11.2826 5.3632 13.7308 5.47756 16.1489 5.59193C17.6636 5.66298 19.1587 6.13431 20.6627 6.42717C21.0276 6.49821 21.0949 6.74255 21.0914 7.06659C21.079 8.13229 21.0861 9.198 21.0861 10.3382C19.8425 9.90154 18.645 9.47872 17.3943 9.2933C14.1011 8.80464 10.838 8.68334 7.83177 10.456C5.32156 11.9376 5.32334 15.6321 8.13647 17.2332C9.76447 18.1586 11.5696 18.4532 13.4013 18.5173C14.7725 18.5641 16.1472 18.5953 17.5307 18.3925C18.8823 18.1967 20.195 17.8519 21.6193 17.5867Z" fill="#1DC3EE"/>
<path d="M23.412 5.89692C25.141 5.89692 26.7531 5.91078 28.3651 5.88825C28.8381 5.88132 28.9409 6.23482 29.1216 6.50168C31.0667 9.37129 33.0011 12.2496 34.9445 15.1226C35.1021 15.3548 35.196 15.6494 35.5326 15.7811C37.5255 12.7122 39.5256 9.64681 41.5025 6.56926C41.8072 6.0962 42.1243 5.85186 42.7479 5.87786C44.1846 5.93504 45.6266 5.89692 47.127 5.89692C47.0402 6.33013 46.7639 6.59526 46.5619 6.88811C43.2581 11.6968 39.9472 16.502 36.6362 21.3072C36.1438 22.0228 34.7531 22.0592 34.2624 21.3644C30.7602 16.4049 27.2633 11.4438 23.7663 6.48089C23.6547 6.32147 23.5644 6.14991 23.412 5.89692Z" fill="white"/>
<path d="M112.123 17.2228C112.123 18.2175 112.045 19.0614 112.144 19.8845C112.247 20.7405 111.856 21.0992 111.105 21.3366C108.068 22.3001 105.106 22.5739 102.437 20.4148C101.368 19.5518 100.864 18.389 100.782 17.027C100.642 14.6929 100.653 12.3553 100.718 10.0228C100.745 9.09923 100.437 8.91035 99.5969 8.98486C98.8369 9.05244 98.0645 9.01085 97.2975 8.99006C97.0654 8.98313 96.7324 9.15468 96.6208 8.78905C96.5322 8.50313 96.7164 8.30385 96.9166 8.1167C98.4773 6.66804 100.033 5.21417 101.59 3.76204C102.463 2.94587 103.331 2.1245 104.212 1.31526C104.396 1.14544 104.555 0.817928 104.841 0.916701C105.154 1.02587 104.98 1.37071 104.984 1.60464C105.003 2.61316 105.027 3.62515 104.979 4.63194C104.95 5.21591 105.092 5.42731 105.737 5.40652C107.328 5.358 108.922 5.41345 110.515 5.37879C111.097 5.36493 111.39 5.47064 111.322 6.11699C111.227 7.05273 111.725 8.31078 111.119 8.84103C110.589 9.30717 109.328 8.98659 108.389 8.99699C107.475 9.00739 106.559 9.01952 105.647 8.99179C105.189 8.97793 104.968 9.04898 104.979 9.58096C105.019 11.6569 104.98 13.7346 105.03 15.8106C105.065 17.2904 106.075 18.2383 107.567 18.3856C109.179 18.5467 110.644 18.1707 112.123 17.2228Z" fill="white"/>
<path d="M94.5765 21.6225C94.5889 18.6091 94.603 15.5957 94.6154 12.5805C94.7075 15.5957 94.7837 18.6091 94.5765 21.6225Z" fill="white"/>
<path d="M53.1289 14.2111C58.5301 14.2111 63.9314 14.2076 69.3327 14.2146C69.772 14.2146 70.1069 14.2562 70.0856 13.615C69.9828 10.5149 68.5338 8.18598 65.7454 6.81529C61.3858 4.67349 56.8242 4.82771 52.422 6.53457C49.3644 7.71984 47.5628 10.2186 47.5504 13.5214C47.538 16.7619 49.0775 19.2277 52.1315 20.718C54.0447 21.652 56.0855 21.9414 58.1741 22.0644C61.609 22.2671 64.9872 22.0159 68.2273 20.7717C69.6817 20.2137 69.6781 20.2016 69.6781 18.6368C69.6781 18.0615 69.6781 17.4879 69.6781 16.7411C67.2477 17.9662 64.7782 18.5068 62.2148 18.6611C59.5789 18.8188 56.9801 18.7131 54.5531 17.5243C53.5806 17.0478 52.8135 16.3633 52.3795 15.36C51.9101 14.277 51.9508 14.2111 53.1289 14.2111ZM54.934 8.90511C57.7241 7.69731 60.5408 7.59334 63.3132 9.00562C64.0855 9.39898 64.6825 9.99161 65.1024 10.7385C65.2547 11.0088 65.3592 11.2982 64.8437 11.2982C60.7853 11.2964 56.7285 11.2982 52.5584 11.2982C53.0881 10.1008 53.9083 9.35045 54.934 8.90511Z" fill="white"/>
</svg>
