<svg width="620" height="510" viewBox="0 0 620 510" fill="none" xmlns="http://www.w3.org/2000/svg">
<g clip-path="url(#clip0)">
<path d="M560.813 394.235V484.359C558.33 486.178 555.776 487.897 553.151 489.516C529.756 503.851 502.814 509.38 475.199 509.947C457.894 509.436 440.653 507.624 423.621 504.525L413.582 502.753C410.229 502.168 406.859 501.459 403.507 500.786V394.235H560.813Z" fill="#1DC3EE"/>
<path d="M560.813 394.235V484.359C558.33 486.178 555.776 487.897 553.151 489.516C529.756 503.851 502.814 509.38 475.199 509.947C457.894 509.436 440.653 507.624 423.621 504.525L413.582 502.753C410.229 502.168 406.859 501.459 403.507 500.786V394.235H560.813Z" fill="url(#paint0_linear)"/>
<path d="M486.497 381.477H405.937L391.287 319.155H471.846L486.497 381.477Z" fill="#1DC3EE"/>
<path d="M482.169 381.477H401.609L386.959 319.155H467.519L482.169 381.477Z" fill="#1DC3EE"/>
<path d="M482.169 381.477H401.609L386.959 319.155H467.519L482.169 381.477Z" fill="url(#paint1_linear)"/>
<path d="M551.821 157.673H317.29C303.448 157.673 292.228 168.883 292.228 182.711V313.751C292.228 327.579 303.448 338.789 317.29 338.789H551.821C565.662 338.789 576.882 327.579 576.882 313.751V182.711C576.882 168.883 565.662 157.673 551.821 157.673Z" fill="#1DC3EE"/>
<path d="M545.843 157.673H311.313C297.471 157.673 286.251 168.883 286.251 182.711V313.751C286.251 327.579 297.471 338.789 311.313 338.789H545.843C559.685 338.789 570.905 327.579 570.905 313.751V182.711C570.905 168.883 559.685 157.673 545.843 157.673Z" fill="#4C506D"/>
<path d="M570.887 302.853V313.733C570.887 320.374 568.247 326.742 563.547 331.438C558.847 336.133 552.472 338.771 545.826 338.771H311.295C304.648 338.771 298.273 336.133 293.573 331.438C288.873 326.742 286.233 320.374 286.233 313.733V302.853H570.887Z" fill="url(#paint2_linear)"/>
<path d="M306.595 466.125C306.735 472.688 305.477 479.205 302.905 485.245H302.604C295.669 485.05 288.716 485.245 281.763 485.67C270.196 486.593 258.695 488.203 247.319 490.49C241.998 491.465 236.819 492.546 231.587 493.609C226.354 494.672 221.583 495.665 216.564 496.639C207.039 498.411 197.887 500.095 189.019 501.37C177.493 496.503 167.194 489.137 158.867 479.805C157.962 478.795 157.093 477.767 156.242 476.722C155.16 475.357 154.131 473.94 153.173 472.451C150.282 468.3 148.405 463.53 147.693 458.523C147.461 456.492 147.533 454.438 147.905 452.428C149.236 445.464 154.326 439.917 160.073 435.647C160.693 435.186 161.314 434.725 161.953 434.3C174.611 425.529 189.784 421.113 205.177 421.719C206.454 421.719 207.749 421.825 209.026 421.914C217.274 422.558 225.445 423.97 233.431 426.131C246.06 429.356 258.67 433.875 271.139 437.862C280.371 440.324 289.204 444.089 297.372 449.043C299.712 450.55 301.751 452.479 303.384 454.731C305.512 458.149 306.625 462.1 306.595 466.125Z" fill="#3E3E54"/>
<path d="M302.604 485.245C295.669 485.05 288.716 485.245 281.763 485.67C270.196 486.593 258.695 488.203 247.319 490.49C241.998 491.465 236.819 492.546 231.587 493.609C226.354 494.672 221.583 495.665 216.564 496.639C189.711 501.867 164.879 507.874 137.246 502.735C135.603 502.542 134.023 501.992 132.616 501.122C130.952 499.672 129.78 497.739 129.264 495.594C125.411 483.463 126.449 470.309 132.155 458.931C138.895 445.659 149.59 440.396 162.095 434.123C176.514 426.822 188.7 421.311 205.319 421.719C206.596 421.719 207.891 421.825 209.168 421.914C217.367 422.582 225.488 423.994 233.431 426.131C245.847 429.356 258.387 433.822 270.678 437.773C279.912 440.229 288.746 443.995 296.91 448.955C299.26 450.449 301.306 452.373 302.941 454.625C305.033 458.024 306.133 461.94 306.116 465.93C306.348 472.546 305.15 479.134 302.604 485.245Z" fill="#3E3E54"/>
<path d="M342.972 489.108C329.711 486.98 316.329 485.69 302.905 485.245H302.604C295.669 485.05 288.716 485.245 281.763 485.67C270.196 486.593 258.695 488.203 247.319 490.49C241.998 491.465 236.819 492.546 231.587 493.609C216.599 490.933 201.434 488.771 186.607 485.493C179.227 484.328 172.199 481.537 166.032 477.324C164.47 476.1 163.069 474.683 161.864 473.107C161.319 472.402 160.821 471.662 160.374 470.892C158.473 467.806 157.558 464.215 157.749 460.597C157.808 459.636 157.974 458.685 158.246 457.761C160.282 452.446 164.099 448 169.047 445.18C176.557 439.774 185.399 436.515 194.624 435.753C200.814 435.416 207.039 436.657 213.141 436.32C218.639 436.019 222.434 432.971 227.33 432.245C231.053 431.803 234.827 432.135 238.415 433.219C246.805 435.523 255.46 440.555 262.04 443.851L306.382 465.966L306.719 466.125L315.587 470.555C323.907 474.386 331.791 479.097 339.106 484.607C340.917 485.566 342.298 487.174 342.972 489.108Z" fill="#3E3E54"/>
<path d="M521.686 381.477V394.235H7.02369C6.22554 389.982 5.46287 385.729 4.77114 381.494L521.686 381.477Z" fill="#1DC3EE"/>
<path d="M521.686 381.477V394.235H7.02369C6.22554 389.982 5.46287 385.729 4.77114 381.494L521.686 381.477Z" fill="url(#paint3_linear)"/>
<path d="M261.81 201.742C255.673 196.302 242.832 194.991 236.978 200.998C232.651 205.428 232.367 212.339 231.303 218.488C229.72 227.335 226 235.662 220.466 242.747C217.486 246.539 213.903 250.118 212.626 254.743C212.094 256.239 212.094 257.872 212.626 259.368C213.514 260.95 214.846 262.237 216.457 263.071C220.118 265.734 224.263 267.66 228.66 268.742C230.862 269.255 233.165 269.133 235.3 268.389C237.435 267.646 239.315 266.312 240.721 264.542C241.75 263.018 242.495 260.998 244.268 260.396C246.574 259.669 248.649 261.902 250.884 262.788C254.662 264.223 258.99 261.512 260.87 257.933C262.466 254.196 263.425 250.219 263.708 246.167C263.973 242.078 265.84 238.258 268.904 235.535C270.128 234.631 271.689 233.957 272.292 232.558C273.374 229.97 270.518 227.614 268.745 225.47C263.3 218.382 268.762 207.537 261.81 201.742Z" fill="url(#paint4_linear)"/>
<path d="M259.876 176.704C252.161 167.844 240.366 162.829 230.292 169.014C226.496 171.353 223.481 174.879 219.49 176.846C217.029 177.927 214.452 178.723 211.81 179.22C204.964 180.851 197.869 183.154 193.24 188.435C188.611 193.715 187.742 202.823 193.151 207.307C192.037 208.801 191.49 210.641 191.607 212.5C191.724 214.36 192.497 216.117 193.79 217.46C195.455 218.77 197.236 219.927 199.111 220.916C204.432 224.46 204.432 228.447 204.024 233.833C204.116 234.73 204.481 235.578 205.07 236.261L209.93 243.349C211.615 245.741 213.85 248.293 216.706 248.293C220.927 248.098 223.091 242.18 227.348 241.825C229.173 241.971 230.967 242.389 232.669 243.066C234.442 243.491 236.854 242.977 237.298 241.187C235.016 239.95 233.294 237.889 232.483 235.425C231.672 232.961 231.833 230.281 232.935 227.933C233.946 225.948 236.482 224.265 238.256 225.576C239.337 226.373 239.604 227.844 240.224 229.12C240.845 230.396 242.636 231.193 243.435 230.112C245.794 224.566 243.293 217.921 245.031 212.25C245.823 209.808 247.329 207.658 249.356 206.079C251.382 204.499 253.836 203.563 256.4 203.39C258.617 203.213 260.852 203.674 263.069 203.39C264.186 203.329 265.254 202.917 266.124 202.214C266.993 201.511 267.618 200.553 267.911 199.474C269.064 191.748 265.588 183.207 259.876 176.704Z" fill="#3E3E54"/>
<path d="M200.814 258.73C200.376 259.32 200.075 259.999 199.934 260.72C199.793 261.44 199.815 262.183 199.998 262.894C200.347 263.517 200.865 264.029 201.493 264.371C202.12 264.712 202.832 264.87 203.545 264.826C213.602 265.8 224.102 267.183 233.502 272.091C235.542 273.066 238.22 274.111 239.639 272.091C240.041 271.361 240.252 270.541 240.252 269.708C240.252 268.874 240.041 268.054 239.639 267.324C238.871 265.988 237.81 264.843 236.535 263.975C232.465 260.98 228.205 258.251 223.782 255.806C215.57 250.969 207.128 248.417 200.814 258.73Z" fill="#1DC3EE"/>
<path d="M232.42 424.217C237.209 433.751 247.248 439.563 237.209 449.185C219.472 466.249 188.132 473.408 164.383 473.178C148.42 473.036 132.013 469.386 119.509 459.533C115.676 456.773 112.68 453.007 110.854 448.653C109.949 445.785 109.47 442.8 109.435 439.793C106.295 383.833 126.16 328.724 154.184 280.189C159.505 270.904 166.6 260.874 177.135 259.315C180.939 258.947 184.776 259.186 188.504 260.024C213.387 264.327 237.995 270.091 262.2 277.283C265.093 277.771 267.833 278.925 270.204 280.654C272.574 282.382 274.509 284.637 275.857 287.242L314.15 345.842C319.684 354.312 325.431 363.562 324.792 373.644C324.759 376.603 323.763 379.47 321.954 381.813C319.043 384.534 315.288 386.179 311.312 386.474C297.361 388.722 283.079 387.752 269.561 383.639C277.116 377.844 274.74 365.812 269.756 357.679C266.381 352.201 262.195 347.266 257.34 343.042C254.117 358.869 248.872 374.216 241.732 388.706C236.411 399.551 226.337 412.203 232.42 424.217Z" fill="#1DC3EE"/>
<path d="M123.34 349.297C124.316 345.647 127.154 334.058 130.63 327.679C144.482 337.549 154.645 356.81 159.771 373.024C164.897 389.238 169.065 406.285 179.476 419.716L190.757 415.8L192.85 422.888C194.517 428.488 189.781 434.247 190.26 439.917C190.739 445.588 196.45 450.549 201.842 452.038C208.334 453.81 215.251 452.357 221.76 450.638C225.964 449.817 229.943 448.107 233.431 445.623C236.712 442.93 238.876 438.429 237.652 434.371C239 435.208 240.032 436.466 240.59 437.949C241.148 439.433 241.201 441.059 240.739 442.575C239.767 445.589 237.914 448.243 235.418 450.195C227.543 457.106 217.521 460.951 207.731 464.654C203.042 466.527 198.258 468.154 193.4 469.527C182.332 472.451 170.75 472.735 159.31 473.071C152.357 473.231 148.189 472.15 145.121 465.275C140.722 455.475 140.403 444.418 139.339 433.715C136.196 405.205 130.847 376.981 123.34 349.297Z" fill="url(#paint5_linear)"/>
<path d="M161.297 451.967C161.297 455.015 161.226 458.116 161.084 461.27C160.924 464.406 160.64 467.614 160.25 470.892L159.984 473.036C159.682 475.269 159.345 477.519 158.938 479.805C158.92 479.887 158.92 479.971 158.938 480.053C158.707 481.311 158.459 482.587 158.21 483.881C159.291 490.836 158.407 497.955 155.656 504.436C149.335 504.654 143.007 504.554 136.696 504.135C124.391 503.392 112.213 501.227 100.407 497.685C88.3431 491.517 77.2078 483.685 67.3281 474.418C64.5967 472.086 62.4213 469.174 60.9606 465.895C59.9027 462.353 59.5354 458.642 59.8787 454.962C60.2293 434.433 57.5215 413.967 51.844 394.235C50.6202 389.947 49.2368 385.694 47.7291 381.494C45.9555 376.728 44.1818 372.032 42.0712 367.318C37.2114 356.385 31.3228 345.718 29.1057 333.969C27.8649 327.537 27.7928 320.935 28.8929 314.477C28.9484 313.329 29.3852 312.231 30.1345 311.359C30.6976 310.908 31.3465 310.577 32.0416 310.385C32.7368 310.193 33.4638 310.145 34.1784 310.242C48.9707 310.65 62.415 319.102 77.03 321.601C84.5326 322.877 92.3189 322.54 99.6087 324.702C109.985 327.75 117.966 335.334 124.262 344.194C127.517 348.894 130.399 353.841 132.882 358.99C136.678 366.698 140.225 374.07 143.524 381.246C145.44 385.552 147.231 389.787 148.845 393.987C154.309 407.186 158.104 421.014 160.144 435.151V435.416C160.873 440.904 161.258 446.431 161.297 451.967Z" fill="#3E3E54"/>
<path d="M161.297 451.967C161.297 455.015 161.226 458.116 161.084 461.27C160.924 464.406 160.64 467.614 160.25 470.892L159.984 473.036C159.682 475.269 159.345 477.519 158.938 479.805C158.92 479.887 158.92 479.971 158.938 480.053C158.707 481.311 158.459 482.587 158.21 483.881C159.291 490.836 158.407 497.955 155.656 504.436C149.335 504.654 143.007 504.554 136.696 504.135C124.391 503.392 112.213 501.227 100.407 497.685C88.3431 491.517 77.2078 483.685 67.3281 474.418C64.5967 472.086 62.4213 469.174 60.9606 465.895C59.9027 462.353 59.5354 458.642 59.8787 454.962C60.2293 434.433 57.5215 413.967 51.844 394.235C50.6202 389.947 49.2368 385.694 47.7291 381.494C45.9555 376.728 44.1818 372.032 42.0712 367.318C37.2114 356.385 31.3228 345.718 29.1057 333.969C27.8649 327.537 27.7928 320.935 28.8929 314.477C28.9484 313.329 29.3852 312.231 30.1345 311.359C30.6976 310.908 31.3465 310.577 32.0416 310.385C32.7368 310.193 33.4638 310.145 34.1784 310.242C48.9707 310.65 62.415 319.102 77.03 321.601C84.5326 322.877 92.3189 322.54 99.6087 324.702C109.985 327.75 117.966 335.334 124.262 344.194C127.517 348.894 130.399 353.841 132.882 358.99C136.678 366.698 140.225 374.07 143.524 381.246C145.44 385.552 147.231 389.787 148.845 393.987C154.309 407.186 158.104 421.014 160.144 435.151V435.416C160.873 440.904 161.258 446.431 161.297 451.967Z" fill="url(#paint6_linear)"/>
<path d="M612.338 381.477H448.54V394.217H612.338V381.477Z" fill="#1DC3EE"/>
<path d="M612.338 381.477H448.54V394.217H612.338V381.477Z" fill="url(#paint7_linear)"/>
<path d="M570.887 394.235V484.359C568.404 486.178 565.85 487.897 563.225 489.516C522.431 514.519 470.764 512.764 423.621 504.524L413.582 502.752V394.235H570.887Z" fill="#1DC3EE"/>
<path d="M412.695 175.056H324.881V232.168H412.695V175.056Z" fill="white"/>
<path d="M343.611 228.358C345.373 225.547 347.845 223.248 350.777 221.693C353.71 220.138 357.001 219.381 360.319 219.498C362.642 219.498 364.983 219.657 367.289 219.657C373.958 219.657 383.997 217.336 389.744 220.756C392.12 222.156 394.107 228.5 395.277 231.016C395.434 231.243 395.524 231.508 395.54 231.783C395.556 232.058 395.495 232.332 395.366 232.575C395.029 233.018 394.515 232.983 394.036 232.983C382.206 232.859 370.411 232.983 358.563 232.983H341.961C342.103 231.325 342.671 229.732 343.611 228.358Z" fill="#1DC3EE"/>
<path d="M366.846 222.351C367.381 222.76 367.98 223.077 368.619 223.29C369.933 223.824 371.362 224.014 372.77 223.839C373.468 223.733 374.123 223.438 374.665 222.985C375.206 222.531 375.612 221.938 375.838 221.27C375.98 220.562 375.98 219.833 375.838 219.126L375.554 216.574C375.518 215.305 375.203 214.059 374.632 212.924C374.067 212.038 373.211 211.377 372.211 211.053C371.211 210.73 370.129 210.765 369.152 211.152C367.881 211.783 366.875 212.844 366.314 214.146C365.037 217.035 364.026 220.047 366.846 222.351Z" fill="url(#paint8_linear)"/>
<path d="M374.685 212.924C374.685 212.924 371.989 220.685 368.087 220.685C364.185 220.685 365.214 216.911 365.214 216.911L374.685 212.924Z" fill="url(#paint9_linear)"/>
<path d="M359.84 209.805C360.177 211.152 360.815 212.392 361.259 213.703C361.43 214.321 361.674 214.916 361.986 215.476C362.539 216.261 363.338 216.84 364.256 217.123C366.223 217.832 368.387 217.762 370.304 216.929C371.587 216.299 372.731 215.42 373.669 214.343C374.607 213.266 375.321 212.012 375.767 210.656C376.743 207.98 378.445 205.34 378.516 202.451C378.516 201.229 377.044 199.758 376.619 198.606C376.084 197.383 375.284 196.293 374.277 195.416C373.466 194.545 372.52 193.809 371.475 193.237C370.145 192.706 368.702 192.518 367.28 192.688C365.858 192.858 364.501 193.382 363.334 194.211C362.515 194.657 361.792 195.259 361.206 195.983C359.822 197.88 360.035 200.201 360.017 202.416C359.999 204.968 359.219 207.289 359.84 209.805Z" fill="url(#paint10_linear)"/>
<path d="M356.576 196.799C355.903 195.4 355.477 193.895 355.317 192.351C355.193 191.995 355.193 191.608 355.317 191.252C355.565 190.738 356.222 190.579 356.612 190.171C357.445 189.285 356.789 187.868 356.842 186.627C356.929 185.933 357.203 185.274 357.633 184.722C358.064 184.17 358.637 183.744 359.29 183.491C360.613 183.007 362.014 182.772 363.423 182.8C364.348 182.63 365.299 182.654 366.215 182.87C367.131 183.087 367.992 183.491 368.744 184.058C369.453 184.767 369.826 185.83 370.517 186.415C372.131 187.744 374.579 186.875 376.619 187.354C377.509 187.555 378.319 188.014 378.95 188.672C379.581 189.331 380.004 190.16 380.166 191.057C380.45 192.829 379.758 194.832 380.769 196.373C381.166 196.781 381.506 197.24 381.78 197.738C381.941 198.328 381.885 198.957 381.62 199.51C380.841 201.825 379.775 204.034 378.445 206.084C378.218 206.497 377.888 206.845 377.488 207.094C377.062 207.307 376.335 209.805 376.087 209.415C375.833 207.971 375.968 206.485 376.477 205.109C376.934 204.683 377.312 204.179 377.594 203.621C377.627 203.389 377.613 203.153 377.554 202.927C377.494 202.701 377.391 202.488 377.249 202.302C377.107 202.116 376.93 201.96 376.727 201.842C376.525 201.725 376.301 201.649 376.069 201.618C375.806 201.585 375.539 201.61 375.287 201.693C375.036 201.776 374.806 201.914 374.614 202.097C375.076 199.262 373.55 195.913 370.73 195.328C369.032 195.132 367.316 195.486 365.835 196.338C362.571 197.809 359.077 201.282 356.576 196.799Z" fill="#DD8049"/>
<path d="M375.679 202.593C375.7 202.529 375.734 202.471 375.78 202.422C375.826 202.373 375.882 202.335 375.945 202.31C376.098 202.311 376.247 202.36 376.37 202.451C376.485 202.505 376.589 202.582 376.674 202.676C376.759 202.77 376.825 202.881 376.867 203.001C376.92 203.18 376.92 203.371 376.867 203.55C376.778 203.923 376.634 204.281 376.441 204.613C376.345 204.78 376.212 204.923 376.052 205.03C375.892 205.138 375.71 205.207 375.519 205.233C375.342 205.233 375.076 204.826 375.076 204.666C375.076 204.507 375.253 204.418 375.324 204.259C375.537 203.763 375.324 203.142 375.679 202.593Z" fill="url(#paint11_linear)"/>
<path d="M508.561 175.464H420.747V232.575H508.561V175.464Z" fill="white"/>
<path d="M508.561 239.167H420.747V296.279H508.561V239.167Z" fill="white"/>
<path d="M412.695 239.167H324.881V296.279H412.695V239.167Z" fill="white"/>
<path d="M455.546 244.891C458.812 243.901 462.269 243.719 465.621 244.359C467.529 244.516 469.386 245.052 471.084 245.936C474.17 247.708 475.713 251.412 476.405 254.92C476.832 258.483 477.555 262.004 478.569 265.446C480.076 269.309 483.056 272.534 484.067 276.574C484.839 279.699 484.339 283.003 482.676 285.76C481.014 288.517 478.325 290.503 475.199 291.282C474.212 291.523 473.199 291.642 472.183 291.636C469.594 291.636 467.075 290.786 464.486 290.786C459.165 290.786 454.039 294.436 448.807 293.373C444.514 292.487 441.446 288.606 439.69 284.513C438.427 282.08 438.081 279.276 438.714 276.61C439.885 273.066 443.627 271.01 445.295 267.75C447.405 263.585 445.827 258.641 447.636 254.406C449.285 250.543 451.254 246.432 455.546 244.891Z" fill="#606161"/>
<path d="M473.957 279.055C476.83 279.622 480.058 279.356 482.4 281.04C483.802 282.137 484.76 283.704 485.096 285.452C485.391 287.172 485.474 288.921 485.344 290.662L485.149 295.8C485.165 295.989 485.114 296.177 485.007 296.332C484.829 296.449 484.615 296.499 484.404 296.474L440.062 296.633C439.673 295.234 439.574 293.771 439.772 292.332C439.971 290.894 440.462 289.511 441.215 288.269C442.328 286.08 443.844 284.12 445.685 282.493C448.381 280.455 454.66 280.278 457.622 278.594C458.402 278.169 457.622 277.549 458.562 277.318C459.502 277.088 459.058 276.078 459.91 276.06C462.509 275.853 465.124 275.966 467.696 276.397C469.878 277.035 471.598 278.577 473.957 279.055Z" fill="#1DC3EE"/>
<path d="M456.628 280.543C456.398 281.25 456.255 281.982 456.203 282.723C456.194 283.563 456.406 284.392 456.816 285.125C457.227 285.859 457.823 286.472 458.544 286.905C459.274 287.326 460.093 287.569 460.935 287.612C461.777 287.655 462.617 287.498 463.386 287.153C465.05 286.302 466.321 284.842 466.933 283.077C467.553 281.319 467.859 279.466 467.838 277.602C467.895 275.125 467.746 272.647 467.394 270.195C467.433 269.997 467.431 269.793 467.388 269.596C467.346 269.398 467.265 269.212 467.149 269.046C467.033 268.881 466.885 268.741 466.714 268.634C466.543 268.527 466.352 268.455 466.153 268.423H465.78C464.321 268.213 462.833 268.492 461.55 269.217C460.266 269.941 459.259 271.071 458.686 272.428C458.388 273.332 458.186 274.264 458.083 275.21C457.69 277.011 457.204 278.792 456.628 280.543Z" fill="url(#paint12_linear)"/>
<path d="M457.728 276.787C457.728 276.787 457.462 279.055 458.491 279.905C459.519 280.756 463.581 282.723 465.585 279.905C466.811 278.095 467.606 276.028 467.909 273.863L457.728 276.787Z" fill="url(#paint13_linear)"/>
<path d="M452.106 269.309C452.62 270.975 455.759 276.84 460.069 277.903C469.381 280.207 472.201 263.851 471.74 260.413C471.122 257.545 469.629 254.938 467.465 252.953C466.28 252.032 464.864 251.454 463.372 251.282C461.88 251.11 460.369 251.351 459.005 251.979C451.698 255.097 449.818 262.203 452.106 269.309Z" fill="url(#paint14_linear)"/>
<path d="M449.09 260.183C449.171 260.533 449.348 260.853 449.603 261.107C449.857 261.361 450.177 261.538 450.527 261.618C451.309 261.582 452.073 261.37 452.762 260.998C453.649 260.732 454.535 260.839 455.511 260.502C456.486 260.165 457.09 259.084 456.575 258.34C456.309 259.474 457.817 260.219 458.97 260.112C460.085 259.776 461.263 259.703 462.411 259.9L462.854 257.631C462.793 258.103 462.896 258.582 463.144 258.988C463.392 259.394 463.772 259.703 464.22 259.864C465.123 260.165 466.101 260.165 467.004 259.864C467.412 259.758 467.909 259.439 467.749 259.049C468.689 260.183 470.498 259.705 471.864 259.049C472.083 258.978 472.27 258.834 472.396 258.641C472.485 258.414 472.485 258.161 472.396 257.933C471.914 255.712 471.119 253.57 470.037 251.571C469.475 250.573 468.712 249.701 467.797 249.012C466.881 248.323 465.832 247.831 464.716 247.566C463.419 247.407 462.104 247.479 460.832 247.779C457.447 248.304 454.366 250.035 452.159 252.652C450.563 254.548 448.399 257.791 449.09 260.183Z" fill="#606161"/>
<path d="M455.546 181.807C458.815 180.832 462.27 180.656 465.621 181.294C467.529 181.45 469.386 181.987 471.084 182.871C476.511 186.078 475.234 190.667 475.731 195.682C475.771 196.507 476.027 197.307 476.472 198.003C476.916 198.699 477.535 199.267 478.267 199.652C479.296 200.095 480.537 200.041 481.406 200.75C481.853 201.21 482.167 201.783 482.313 202.407C482.46 203.031 482.435 203.683 482.24 204.294C481.938 205.517 481.335 206.651 481.087 207.838C480.953 208.319 481.01 208.834 481.247 209.273C481.619 209.823 482.382 209.911 483.02 210.159C483.742 210.542 484.355 211.102 484.799 211.788C485.243 212.473 485.504 213.261 485.557 214.076C485.77 215.688 485.557 217.318 485.681 218.949C485.858 219.961 485.947 220.987 485.947 222.014C485.734 225.151 482.595 227.454 479.455 227.862C476.291 228 473.135 227.438 470.215 226.214C467.291 224.99 464.117 224.48 460.956 224.725C457.586 225.275 454.021 227.472 451.041 225.824C450.203 225.278 449.518 224.528 449.049 223.644C448.581 222.761 448.345 221.773 448.363 220.774C448.429 218.78 448.843 216.813 449.587 214.962C449.868 214.382 449.925 213.72 449.747 213.101C449.45 212.648 449.056 212.267 448.594 211.985C444.23 208.6 445.827 195.735 447.671 191.359C449.285 187.478 451.254 183.367 455.546 181.807Z" fill="#FBB03B"/>
<path d="M473.957 215.989C476.83 216.556 480.058 216.291 482.4 217.974C483.802 219.071 484.759 220.639 485.096 222.386C485.385 224.143 485.451 225.929 485.291 227.702L485.096 232.841C485.112 233.024 485.061 233.206 484.954 233.355C484.782 233.486 484.565 233.543 484.351 233.514L440.009 233.674C439.619 232.275 439.521 230.811 439.719 229.373C439.917 227.934 440.408 226.552 441.162 225.31C442.274 223.12 443.791 221.161 445.632 219.533C448.328 217.496 454.606 217.318 457.568 215.635C458.349 215.21 457.568 214.59 458.508 214.359C459.448 214.129 459.005 213.119 459.856 213.101C462.456 212.894 465.071 213.007 467.643 213.438C469.878 213.969 471.598 215.511 473.957 215.989Z" fill="#1DC3EE"/>
<path d="M456.628 217.478C456.398 218.184 456.255 218.916 456.203 219.657C456.194 220.498 456.406 221.326 456.816 222.06C457.227 222.793 457.823 223.407 458.544 223.839C459.274 224.261 460.093 224.503 460.935 224.546C461.777 224.59 462.617 224.432 463.386 224.087C465.05 223.236 466.321 221.776 466.933 220.012C467.553 218.254 467.859 216.4 467.838 214.536C467.895 212.059 467.746 209.582 467.394 207.129C467.433 206.931 467.431 206.728 467.388 206.53C467.346 206.333 467.265 206.146 467.149 205.981C467.033 205.816 466.885 205.675 466.714 205.568C466.543 205.461 466.352 205.389 466.153 205.357H465.78C464.321 205.148 462.833 205.427 461.55 206.151C460.266 206.876 459.259 208.005 458.686 209.362C458.388 210.266 458.186 211.198 458.083 212.144C457.69 213.946 457.204 215.726 456.628 217.478Z" fill="url(#paint15_linear)"/>
<path d="M457.728 213.721C457.728 213.721 457.462 215.989 458.491 216.84C459.519 217.691 463.581 219.657 465.585 216.84C466.811 215.029 467.606 212.962 467.909 210.797L457.728 213.721Z" fill="url(#paint16_linear)"/>
<path d="M452.106 206.243C452.62 207.909 455.759 213.774 460.069 214.838C469.381 217.141 472.201 200.786 471.74 197.348C471.122 194.479 469.629 191.873 467.465 189.888C466.28 188.966 464.864 188.388 463.372 188.216C461.88 188.044 460.369 188.285 459.005 188.913C451.698 192.032 449.818 199.138 452.106 206.243Z" fill="url(#paint17_linear)"/>
<path d="M350.493 275.192C354.246 273.77 358.239 273.09 362.252 273.19C366.633 273.012 371.333 272.959 374.969 274.855C376.667 275.824 378.199 277.056 379.51 278.506C379.994 278.941 380.406 279.449 380.734 280.012C381.027 280.717 381.149 281.483 381.088 282.245V292.628C381.15 293.316 381.028 294.007 380.734 294.631C379.776 296.403 383.128 296.403 380.734 296.403H340.684C341.323 296.403 341.997 290.484 341.979 289.882C341.979 287.826 341.341 286.072 342.334 284.141C343.947 280.312 346.827 277.153 350.493 275.192Z" fill="#1DC3EE"/>
<path d="M360.407 278.878C361.016 279.38 361.717 279.758 362.472 279.989C363.227 280.22 364.02 280.3 364.806 280.224C365.764 279.991 366.623 279.461 367.26 278.71C367.898 277.958 368.28 277.025 368.353 276.043C368.619 274.182 368.194 272.268 368.353 270.372C368.531 269.197 368.531 268.003 368.353 266.828C368.002 265.912 367.403 265.11 366.623 264.513C365.844 263.916 364.914 263.545 363.937 263.444C362.959 263.33 361.969 263.448 361.045 263.786C360.12 264.125 359.289 264.675 358.616 265.393C356.754 267.466 357.321 269.947 357.233 272.481C357.222 273.721 357.504 274.947 358.056 276.058C358.607 277.169 359.413 278.135 360.407 278.878Z" fill="#A67C52"/>
<path d="M357.729 270.195C357.729 270.195 359.822 276.255 363.848 276.255C367.874 276.255 368.442 274.217 368.442 274.217L368.265 270.957L357.729 270.195Z" fill="url(#paint18_linear)"/>
<path d="M372.202 262.894C372.148 264.698 371.85 266.486 371.315 268.21C370.783 269.929 369.706 271.427 368.247 272.481C367.198 273.143 366.003 273.538 364.766 273.631C363.529 273.723 362.288 273.511 361.152 273.012C358.83 271.986 356.945 270.172 355.831 267.891C354.661 265.691 353.932 263.283 353.685 260.803C353.501 258.897 353.851 256.976 354.696 255.257C355.707 253.516 357.364 252.243 359.308 251.713C361.229 251.186 363.225 250.982 365.214 251.11C366.84 251.053 368.459 251.361 369.95 252.014C370.752 252.362 371.419 252.962 371.848 253.724C372.277 254.485 372.445 255.366 372.326 256.232C371.989 258.305 372.326 260.662 372.202 262.894Z" fill="#A67C52"/>
<path d="M356.292 262.008C355.778 261.742 355.494 261.051 354.927 260.998C354.751 260.994 354.577 261.042 354.429 261.137C354.28 261.232 354.164 261.369 354.093 261.53C353.988 261.87 353.988 262.235 354.093 262.575C354.238 263.403 354.657 264.158 355.281 264.719C355.574 264.917 355.812 265.185 355.973 265.499C356.029 265.75 356.029 266.01 355.973 266.261L355.743 268.033C355.298 267.86 354.897 267.591 354.569 267.245C354.241 266.898 353.993 266.484 353.845 266.031C353.703 265.659 353.561 264.932 353.064 264.826C352.568 264.719 352.231 265.357 351.628 264.826C351.421 264.664 351.28 264.433 351.231 264.176C351.182 263.918 351.229 263.652 351.362 263.426C350.794 264.046 349.588 263.426 349.482 262.664C349.459 262.246 349.562 261.83 349.777 261.47C349.991 261.11 350.309 260.823 350.688 260.644C350.241 260.514 349.838 260.264 349.525 259.92C349.212 259.576 349.001 259.152 348.914 258.695C348.892 258.496 348.909 258.294 348.965 258.102C349.021 257.91 349.114 257.73 349.239 257.574C349.364 257.418 349.519 257.287 349.694 257.191C349.87 257.094 350.063 257.033 350.262 257.011C350.403 256.994 350.546 256.994 350.688 257.011C350.378 256.62 350.21 256.136 350.21 255.638C350.21 255.14 350.378 254.656 350.688 254.265C351.01 253.884 351.412 253.578 351.866 253.37C352.32 253.162 352.814 253.056 353.313 253.06V250.366C353.272 249.751 353.408 249.136 353.703 248.594C353.864 248.365 354.109 248.209 354.384 248.159C354.66 248.11 354.944 248.17 355.175 248.328H355.264C355.388 247.07 355.707 245.582 356.878 245.139C357.798 244.952 358.754 245.136 359.538 245.653C359.587 245.101 359.806 244.578 360.165 244.156C360.524 243.734 361.005 243.433 361.542 243.296C362.086 243.174 362.65 243.171 363.195 243.288C363.74 243.404 364.253 243.636 364.7 243.969C364.809 244.073 364.943 244.147 365.09 244.182C365.269 244.235 365.46 244.235 365.64 244.182C366.016 243.905 366.442 243.706 366.896 243.594C367.349 243.483 367.82 243.462 368.281 243.533C368.742 243.604 369.185 243.765 369.584 244.007C369.983 244.249 370.33 244.567 370.606 244.944C370.908 245.357 371.116 245.831 371.217 246.333C371.318 246.835 371.309 247.352 371.191 247.85C371.191 247.265 372.078 247.23 372.646 247.372C373.309 247.46 373.928 247.751 374.419 248.204C375.217 249.09 374.827 250.49 374.26 251.553C374.822 251.558 375.362 251.768 375.781 252.143C376.199 252.519 376.465 253.034 376.53 253.591C376.725 255.594 374.756 255.629 373.692 256.71C372.983 257.436 372.663 258.482 371.918 259.138C371.424 259.442 370.859 259.615 370.278 259.64C369.698 259.664 369.121 259.54 368.602 259.279C367.582 258.754 366.598 258.162 365.657 257.507C365.192 257.168 364.616 257.016 364.043 257.082C363.245 257.242 362.784 258.11 362.075 258.517C361.41 258.829 360.657 258.898 359.946 258.712C359.077 258.535 358.173 258.376 357.499 259.173C356.924 260.035 356.515 260.997 356.292 262.008Z" fill="#606161"/>
<path opacity="0.5" d="M355.423 262.877C355.366 262.732 355.301 262.59 355.228 262.451C355.19 262.381 355.134 262.323 355.065 262.283C354.996 262.242 354.918 262.221 354.838 262.221C354.76 262.235 354.689 262.274 354.635 262.331C354.581 262.389 354.546 262.462 354.537 262.54C354.501 262.691 354.501 262.849 354.537 263.001C354.617 263.315 354.737 263.619 354.891 263.904C354.979 264.094 355.106 264.263 355.264 264.4C355.444 264.526 355.65 264.611 355.867 264.649C355.906 264.666 355.948 264.675 355.991 264.675C356.034 264.675 356.076 264.666 356.115 264.649C356.161 264.607 356.193 264.551 356.204 264.489C356.204 264.223 356.381 263.656 356.204 263.426C356.026 263.195 355.955 263.426 355.831 263.284C355.654 263.196 355.511 263.053 355.423 262.877Z" fill="url(#paint19_linear)"/>
<path d="M458.544 194.973C460.488 195.544 462.475 195.959 464.486 196.214C464.61 197.383 464.769 198.553 464.982 199.758C465.04 200.243 465.191 200.712 465.426 201.14C465.629 201.439 465.891 201.694 466.196 201.889C466.501 202.083 466.842 202.215 467.199 202.274C467.94 202.38 468.693 202.38 469.434 202.274C469.762 202.201 470.105 202.258 470.392 202.434C470.534 202.573 470.643 202.743 470.711 202.93L472.024 206.013C472.061 206.033 472.103 206.044 472.146 206.045C472.189 206.046 472.231 206.036 472.27 206.017C472.308 205.998 472.341 205.97 472.366 205.935C472.391 205.901 472.408 205.86 472.414 205.818C472.449 205.655 472.449 205.485 472.414 205.322C472.201 204.099 473.035 202.983 473.531 201.778C474.791 198.89 473.957 195.54 472.875 192.563C472.429 191.186 471.778 189.883 470.942 188.701C469.872 187.51 468.577 186.543 467.131 185.855C465.685 185.168 464.116 184.774 462.517 184.696C460.934 184.448 459.315 184.588 457.799 185.103C456.719 185.572 455.788 186.326 455.107 187.285C454.425 188.244 454.019 189.371 453.932 190.543C453.897 193.007 456.593 194.389 458.544 194.973Z" fill="#FBB03B"/>
</g>
<defs>
<linearGradient id="paint0_linear" x1="445.507" y1="319.527" x2="504.663" y2="526.438" gradientUnits="userSpaceOnUse">
<stop offset="0.01"/>
<stop offset="0.08" stop-opacity="0.69"/>
<stop offset="0.21" stop-opacity="0.32"/>
<stop offset="1" stop-opacity="0"/>
</linearGradient>
<linearGradient id="paint1_linear" x1="23234.3" y1="-10256.3" x2="26358" y2="-4393.94" gradientUnits="userSpaceOnUse">
<stop offset="0.01"/>
<stop offset="0.08" stop-opacity="0.69"/>
<stop offset="0.21" stop-opacity="0.32"/>
<stop offset="1" stop-opacity="0"/>
</linearGradient>
<linearGradient id="paint2_linear" x1="69448.7" y1="7800.84" x2="69705.5" y2="3270.03" gradientUnits="userSpaceOnUse">
<stop offset="0.01"/>
<stop offset="0.08" stop-opacity="0.69"/>
<stop offset="0.21" stop-opacity="0.32"/>
<stop offset="1" stop-opacity="0"/>
</linearGradient>
<linearGradient id="paint3_linear" x1="48315.6" y1="2973.47" x2="48375.5" y2="206.169" gradientUnits="userSpaceOnUse">
<stop offset="0.01"/>
<stop offset="0.08" stop-opacity="0.69"/>
<stop offset="0.21" stop-opacity="0.32"/>
<stop offset="1" stop-opacity="0"/>
</linearGradient>
<linearGradient id="paint4_linear" x1="272.523" y1="233.054" x2="212.307" y2="233.054" gradientUnits="userSpaceOnUse">
<stop stop-color="#E5C5D5"/>
<stop offset="0.42" stop-color="#EAD4D1"/>
<stop offset="1" stop-color="#F0E9CB"/>
</linearGradient>
<linearGradient id="paint5_linear" x1="3196.76" y1="1123.06" x2="27668.3" y2="20932.2" gradientUnits="userSpaceOnUse">
<stop offset="0.01"/>
<stop offset="0.08" stop-opacity="0.69"/>
<stop offset="0.21" stop-opacity="0.32"/>
<stop offset="1" stop-opacity="0"/>
</linearGradient>
<linearGradient id="paint6_linear" x1="28.1302" y1="407.366" x2="161.297" y2="407.366" gradientUnits="userSpaceOnUse">
<stop stop-opacity="0"/>
<stop offset="0.99"/>
</linearGradient>
<linearGradient id="paint7_linear" x1="41493.6" y1="-2635.74" x2="41651.8" y2="446.132" gradientUnits="userSpaceOnUse">
<stop offset="0.01"/>
<stop offset="0.08" stop-opacity="0.69"/>
<stop offset="0.21" stop-opacity="0.32"/>
<stop offset="1" stop-opacity="0"/>
</linearGradient>
<linearGradient id="paint8_linear" x1="365.321" y1="215.768" x2="376.234" y2="218.84" gradientUnits="userSpaceOnUse">
<stop stop-color="#E3C5D5"/>
<stop offset="0.42" stop-color="#E8D3CF"/>
<stop offset="1" stop-color="#EFE8CB"/>
</linearGradient>
<linearGradient id="paint9_linear" x1="368.974" y1="220.154" x2="373.914" y2="193.341" gradientUnits="userSpaceOnUse">
<stop stop-color="#010101" stop-opacity="0"/>
<stop offset="0.95" stop-color="#010101"/>
</linearGradient>
<linearGradient id="paint10_linear" x1="509.052" y1="-5489.19" x2="710.696" y2="-5489.19" gradientUnits="userSpaceOnUse">
<stop stop-color="#E3C5D5"/>
<stop offset="0.42" stop-color="#E8D3CF"/>
<stop offset="1" stop-color="#EFE8CB"/>
</linearGradient>
<linearGradient id="paint11_linear" x1="365.079" y1="-546.588" x2="360.057" y2="-546.958" gradientUnits="userSpaceOnUse">
<stop stop-color="#010101" stop-opacity="0"/>
<stop offset="0.95" stop-color="#010101"/>
</linearGradient>
<linearGradient id="paint12_linear" x1="1348.92" y1="-3160.68" x2="1425.68" y2="-3160.68" gradientUnits="userSpaceOnUse">
<stop stop-color="#E3C5D5"/>
<stop offset="0.42" stop-color="#E8D3CF"/>
<stop offset="1" stop-color="#EFE8CB"/>
</linearGradient>
<linearGradient id="paint13_linear" x1="883.322" y1="-1324.3" x2="947.866" y2="-1445.13" gradientUnits="userSpaceOnUse">
<stop stop-color="#010101" stop-opacity="0"/>
<stop offset="0.95" stop-color="#010101"/>
</linearGradient>
<linearGradient id="paint14_linear" x1="996.99" y1="-5597.69" x2="1231.3" y2="-5559.78" gradientUnits="userSpaceOnUse">
<stop stop-color="#E3C5D5"/>
<stop offset="0.42" stop-color="#E8D3CF"/>
<stop offset="1" stop-color="#EFE8CB"/>
</linearGradient>
<linearGradient id="paint15_linear" x1="1348.92" y1="-3909.36" x2="1425.68" y2="-3909.36" gradientUnits="userSpaceOnUse">
<stop stop-color="#E3C5D5"/>
<stop offset="0.42" stop-color="#E8D3CF"/>
<stop offset="1" stop-color="#EFE8CB"/>
</linearGradient>
<linearGradient id="paint16_linear" x1="883.322" y1="-1654.52" x2="947.866" y2="-1775.35" gradientUnits="userSpaceOnUse">
<stop stop-color="#010101" stop-opacity="0"/>
<stop offset="0.95" stop-color="#010101"/>
</linearGradient>
<linearGradient id="paint17_linear" x1="1042.39" y1="-6611.82" x2="1276.7" y2="-6573.92" gradientUnits="userSpaceOnUse">
<stop stop-color="#E3C5D5"/>
<stop offset="0.42" stop-color="#E8D3CF"/>
<stop offset="1" stop-color="#EFE8CB"/>
</linearGradient>
<linearGradient id="paint18_linear" x1="218.569" y1="-1035.79" x2="217.78" y2="-1105.81" gradientUnits="userSpaceOnUse">
<stop stop-color="#010101" stop-opacity="0"/>
<stop offset="0.95" stop-color="#010101"/>
</linearGradient>
<linearGradient id="paint19_linear" x1="323.522" y1="-283.737" x2="325.994" y2="-284.716" gradientUnits="userSpaceOnUse">
<stop stop-color="#010101" stop-opacity="0"/>
<stop offset="0.95" stop-color="#010101"/>
</linearGradient>
<clipPath id="clip0">
<rect width="620" height="510" fill="white"/>
</clipPath>
</defs>
</svg>
